<mxfile host="Electron" modified="2024-02-23T21:51:21.691Z" agent="Mozilla/5.0 (Windows NT 10.0; Win64; x64) AppleWebKit/537.36 (KHTML, like Gecko) draw.io/23.1.5 Chrome/120.0.6099.109 Electron/28.1.0 Safari/537.36" etag="CynP7lteonx-V4k8l4X_" version="23.1.5" type="device">
  <diagram name="Страница — 1" id="2681EKO4xRGXbzZvbcek">
    <mxGraphModel dx="1075" dy="598" grid="1" gridSize="10" guides="1" tooltips="1" connect="1" arrows="1" fold="1" page="1" pageScale="1" pageWidth="827" pageHeight="1169" math="0" shadow="0">
      <root>
        <mxCell id="0" />
        <mxCell id="1" parent="0" />
        <mxCell id="mdJx6ho74UccclnnJOqx-1" value="&lt;font style=&quot;font-size: 18px;&quot;&gt;Структура меню&lt;/font&gt;" style="text;strokeColor=none;align=center;fillColor=none;html=1;verticalAlign=middle;whiteSpace=wrap;rounded=0;" vertex="1" parent="1">
          <mxGeometry x="280" y="10" width="190" height="30" as="geometry" />
        </mxCell>
        <mxCell id="mdJx6ho74UccclnnJOqx-2" value="&quot;Категории&quot;" style="rounded=1;whiteSpace=wrap;html=1;" vertex="1" parent="1">
          <mxGeometry x="40" y="80" width="90" height="40" as="geometry" />
        </mxCell>
        <mxCell id="mdJx6ho74UccclnnJOqx-3" value="&quot;Выход = 0&quot;" style="rounded=1;whiteSpace=wrap;html=1;" vertex="1" parent="1">
          <mxGeometry x="60" y="140" width="110" height="30" as="geometry" />
        </mxCell>
        <mxCell id="mdJx6ho74UccclnnJOqx-4" value="&quot;Воркордеры = 1&quot;" style="rounded=1;whiteSpace=wrap;html=1;" vertex="1" parent="1">
          <mxGeometry x="60" y="180" width="110" height="30" as="geometry" />
        </mxCell>
        <mxCell id="mdJx6ho74UccclnnJOqx-5" value="&quot;Клиенты = 2&quot;" style="rounded=1;whiteSpace=wrap;html=1;" vertex="1" parent="1">
          <mxGeometry x="60" y="220" width="110" height="30" as="geometry" />
        </mxCell>
        <mxCell id="mdJx6ho74UccclnnJOqx-6" value="&quot;Машины = 3&quot;" style="rounded=1;whiteSpace=wrap;html=1;" vertex="1" parent="1">
          <mxGeometry x="60" y="260" width="110" height="30" as="geometry" />
        </mxCell>
        <mxCell id="mdJx6ho74UccclnnJOqx-7" value="" style="endArrow=none;html=1;rounded=0;entryX=0.111;entryY=1.02;entryDx=0;entryDy=0;entryPerimeter=0;" edge="1" parent="1" target="mdJx6ho74UccclnnJOqx-2">
          <mxGeometry width="50" height="50" relative="1" as="geometry">
            <mxPoint x="50" y="280" as="sourcePoint" />
            <mxPoint x="600" y="240" as="targetPoint" />
          </mxGeometry>
        </mxCell>
        <mxCell id="mdJx6ho74UccclnnJOqx-8" value="" style="endArrow=none;html=1;rounded=0;" edge="1" parent="1">
          <mxGeometry width="50" height="50" relative="1" as="geometry">
            <mxPoint x="60" y="160" as="sourcePoint" />
            <mxPoint x="50" y="160" as="targetPoint" />
          </mxGeometry>
        </mxCell>
        <mxCell id="mdJx6ho74UccclnnJOqx-9" value="" style="endArrow=none;html=1;rounded=0;exitX=0;exitY=0.5;exitDx=0;exitDy=0;" edge="1" parent="1" source="mdJx6ho74UccclnnJOqx-4">
          <mxGeometry width="50" height="50" relative="1" as="geometry">
            <mxPoint x="70" y="150" as="sourcePoint" />
            <mxPoint x="50" y="195" as="targetPoint" />
          </mxGeometry>
        </mxCell>
        <mxCell id="mdJx6ho74UccclnnJOqx-10" value="" style="endArrow=none;html=1;rounded=0;exitX=0;exitY=0.5;exitDx=0;exitDy=0;" edge="1" parent="1" source="mdJx6ho74UccclnnJOqx-5">
          <mxGeometry width="50" height="50" relative="1" as="geometry">
            <mxPoint x="80" y="160" as="sourcePoint" />
            <mxPoint x="50" y="235" as="targetPoint" />
          </mxGeometry>
        </mxCell>
        <mxCell id="mdJx6ho74UccclnnJOqx-11" value="" style="endArrow=none;html=1;rounded=0;exitX=0;exitY=0.5;exitDx=0;exitDy=0;" edge="1" parent="1" source="mdJx6ho74UccclnnJOqx-6">
          <mxGeometry width="50" height="50" relative="1" as="geometry">
            <mxPoint x="90" y="190" as="sourcePoint" />
            <mxPoint x="50" y="275" as="targetPoint" />
          </mxGeometry>
        </mxCell>
        <mxCell id="mdJx6ho74UccclnnJOqx-12" value="&quot;Найти = 1&quot;" style="rounded=1;whiteSpace=wrap;html=1;" vertex="1" parent="1">
          <mxGeometry x="120" y="300" width="120" height="30" as="geometry" />
        </mxCell>
        <mxCell id="mdJx6ho74UccclnnJOqx-13" value="&quot;Выбрать = 2&quot;" style="rounded=1;whiteSpace=wrap;html=1;" vertex="1" parent="1">
          <mxGeometry x="120" y="340" width="120" height="30" as="geometry" />
        </mxCell>
        <mxCell id="mdJx6ho74UccclnnJOqx-14" value="&quot;Редактировать = 3&quot;" style="rounded=1;whiteSpace=wrap;html=1;" vertex="1" parent="1">
          <mxGeometry x="120" y="380" width="120" height="30" as="geometry" />
        </mxCell>
        <mxCell id="mdJx6ho74UccclnnJOqx-15" value="&quot;Добавить = 4&quot;" style="rounded=1;whiteSpace=wrap;html=1;" vertex="1" parent="1">
          <mxGeometry x="120" y="420" width="120" height="30" as="geometry" />
        </mxCell>
        <mxCell id="mdJx6ho74UccclnnJOqx-16" value="&quot;Удалить = 5&quot;" style="rounded=1;whiteSpace=wrap;html=1;" vertex="1" parent="1">
          <mxGeometry x="120" y="460" width="120" height="30" as="geometry" />
        </mxCell>
        <mxCell id="mdJx6ho74UccclnnJOqx-17" value="" style="endArrow=classic;html=1;rounded=0;exitX=0.203;exitY=1.117;exitDx=0;exitDy=0;exitPerimeter=0;entryX=0;entryY=0.5;entryDx=0;entryDy=0;" edge="1" parent="1" source="mdJx6ho74UccclnnJOqx-6" target="mdJx6ho74UccclnnJOqx-33">
          <mxGeometry width="50" height="50" relative="1" as="geometry">
            <mxPoint x="490" y="440" as="sourcePoint" />
            <mxPoint x="120" y="475" as="targetPoint" />
            <Array as="points">
              <mxPoint x="80" y="515" />
            </Array>
          </mxGeometry>
        </mxCell>
        <mxCell id="mdJx6ho74UccclnnJOqx-18" value="" style="endArrow=classic;html=1;rounded=0;entryX=0;entryY=0.5;entryDx=0;entryDy=0;" edge="1" parent="1" target="mdJx6ho74UccclnnJOqx-15">
          <mxGeometry width="50" height="50" relative="1" as="geometry">
            <mxPoint x="80" y="435" as="sourcePoint" />
            <mxPoint x="540" y="390" as="targetPoint" />
          </mxGeometry>
        </mxCell>
        <mxCell id="mdJx6ho74UccclnnJOqx-19" value="" style="endArrow=classic;html=1;rounded=0;" edge="1" parent="1">
          <mxGeometry width="50" height="50" relative="1" as="geometry">
            <mxPoint x="80" y="400" as="sourcePoint" />
            <mxPoint x="120" y="400" as="targetPoint" />
          </mxGeometry>
        </mxCell>
        <mxCell id="mdJx6ho74UccclnnJOqx-20" value="" style="endArrow=classic;html=1;rounded=0;" edge="1" parent="1" target="mdJx6ho74UccclnnJOqx-13">
          <mxGeometry width="50" height="50" relative="1" as="geometry">
            <mxPoint x="80" y="355" as="sourcePoint" />
            <mxPoint x="540" y="390" as="targetPoint" />
          </mxGeometry>
        </mxCell>
        <mxCell id="mdJx6ho74UccclnnJOqx-21" value="" style="endArrow=classic;html=1;rounded=0;entryX=0;entryY=0.5;entryDx=0;entryDy=0;" edge="1" parent="1" target="mdJx6ho74UccclnnJOqx-12">
          <mxGeometry width="50" height="50" relative="1" as="geometry">
            <mxPoint x="80" y="315" as="sourcePoint" />
            <mxPoint x="540" y="390" as="targetPoint" />
          </mxGeometry>
        </mxCell>
        <mxCell id="mdJx6ho74UccclnnJOqx-22" value="&quot;Найти = 1&quot;" style="rounded=1;whiteSpace=wrap;html=1;" vertex="1" parent="1">
          <mxGeometry x="310" y="300" width="120" height="30" as="geometry" />
        </mxCell>
        <mxCell id="mdJx6ho74UccclnnJOqx-23" value="&quot;Выбрать = 2&quot;" style="rounded=1;whiteSpace=wrap;html=1;" vertex="1" parent="1">
          <mxGeometry x="310" y="340" width="120" height="30" as="geometry" />
        </mxCell>
        <mxCell id="mdJx6ho74UccclnnJOqx-24" value="&quot;Редактировать = 3&quot;" style="rounded=1;whiteSpace=wrap;html=1;" vertex="1" parent="1">
          <mxGeometry x="310" y="380" width="120" height="30" as="geometry" />
        </mxCell>
        <mxCell id="mdJx6ho74UccclnnJOqx-25" value="&quot;Добавить = 4&quot;" style="rounded=1;whiteSpace=wrap;html=1;" vertex="1" parent="1">
          <mxGeometry x="310" y="420" width="120" height="30" as="geometry" />
        </mxCell>
        <mxCell id="mdJx6ho74UccclnnJOqx-26" value="&quot;Удалить = 5&quot;" style="rounded=1;whiteSpace=wrap;html=1;" vertex="1" parent="1">
          <mxGeometry x="310" y="460" width="120" height="30" as="geometry" />
        </mxCell>
        <mxCell id="mdJx6ho74UccclnnJOqx-27" value="" style="endArrow=classic;html=1;rounded=0;entryX=0;entryY=0.5;entryDx=0;entryDy=0;" edge="1" parent="1" target="mdJx6ho74UccclnnJOqx-35">
          <mxGeometry width="50" height="50" relative="1" as="geometry">
            <mxPoint x="272" y="230" as="sourcePoint" />
            <mxPoint x="730" y="396" as="targetPoint" />
            <Array as="points">
              <mxPoint x="270" y="520" />
            </Array>
          </mxGeometry>
        </mxCell>
        <mxCell id="mdJx6ho74UccclnnJOqx-28" value="" style="endArrow=classic;html=1;rounded=0;entryX=0;entryY=0.5;entryDx=0;entryDy=0;" edge="1" parent="1" target="mdJx6ho74UccclnnJOqx-25">
          <mxGeometry width="50" height="50" relative="1" as="geometry">
            <mxPoint x="270" y="435" as="sourcePoint" />
            <mxPoint x="730" y="390" as="targetPoint" />
          </mxGeometry>
        </mxCell>
        <mxCell id="mdJx6ho74UccclnnJOqx-29" value="" style="endArrow=classic;html=1;rounded=0;" edge="1" parent="1">
          <mxGeometry width="50" height="50" relative="1" as="geometry">
            <mxPoint x="270" y="400" as="sourcePoint" />
            <mxPoint x="310" y="400" as="targetPoint" />
          </mxGeometry>
        </mxCell>
        <mxCell id="mdJx6ho74UccclnnJOqx-30" value="" style="endArrow=classic;html=1;rounded=0;" edge="1" parent="1" target="mdJx6ho74UccclnnJOqx-23">
          <mxGeometry width="50" height="50" relative="1" as="geometry">
            <mxPoint x="270" y="355" as="sourcePoint" />
            <mxPoint x="730" y="390" as="targetPoint" />
          </mxGeometry>
        </mxCell>
        <mxCell id="mdJx6ho74UccclnnJOqx-31" value="" style="endArrow=classic;html=1;rounded=0;entryX=0;entryY=0.5;entryDx=0;entryDy=0;" edge="1" parent="1" target="mdJx6ho74UccclnnJOqx-22">
          <mxGeometry width="50" height="50" relative="1" as="geometry">
            <mxPoint x="270" y="315" as="sourcePoint" />
            <mxPoint x="730" y="390" as="targetPoint" />
          </mxGeometry>
        </mxCell>
        <mxCell id="mdJx6ho74UccclnnJOqx-32" value="" style="endArrow=none;html=1;rounded=0;exitX=1;exitY=0.5;exitDx=0;exitDy=0;" edge="1" parent="1" source="mdJx6ho74UccclnnJOqx-5">
          <mxGeometry width="50" height="50" relative="1" as="geometry">
            <mxPoint x="490" y="280" as="sourcePoint" />
            <mxPoint x="270" y="235" as="targetPoint" />
          </mxGeometry>
        </mxCell>
        <mxCell id="mdJx6ho74UccclnnJOqx-33" value="&quot;Выход = 0&quot;" style="rounded=1;whiteSpace=wrap;html=1;" vertex="1" parent="1">
          <mxGeometry x="120" y="500" width="120" height="30" as="geometry" />
        </mxCell>
        <mxCell id="mdJx6ho74UccclnnJOqx-34" value="" style="endArrow=classic;html=1;rounded=0;entryX=0;entryY=0.5;entryDx=0;entryDy=0;" edge="1" parent="1" target="mdJx6ho74UccclnnJOqx-16">
          <mxGeometry width="50" height="50" relative="1" as="geometry">
            <mxPoint x="80" y="475" as="sourcePoint" />
            <mxPoint x="540" y="310" as="targetPoint" />
          </mxGeometry>
        </mxCell>
        <mxCell id="mdJx6ho74UccclnnJOqx-35" value="&quot;Выход = 0&quot;" style="rounded=1;whiteSpace=wrap;html=1;" vertex="1" parent="1">
          <mxGeometry x="310" y="504" width="120" height="30" as="geometry" />
        </mxCell>
        <mxCell id="mdJx6ho74UccclnnJOqx-37" value="" style="endArrow=classic;html=1;rounded=0;entryX=0;entryY=0.5;entryDx=0;entryDy=0;" edge="1" parent="1" target="mdJx6ho74UccclnnJOqx-26">
          <mxGeometry width="50" height="50" relative="1" as="geometry">
            <mxPoint x="270" y="475" as="sourcePoint" />
            <mxPoint x="540" y="310" as="targetPoint" />
          </mxGeometry>
        </mxCell>
        <mxCell id="mdJx6ho74UccclnnJOqx-38" value="&quot;Найти = 1&quot;" style="rounded=1;whiteSpace=wrap;html=1;" vertex="1" parent="1">
          <mxGeometry x="500" y="300" width="120" height="30" as="geometry" />
        </mxCell>
        <mxCell id="mdJx6ho74UccclnnJOqx-39" value="&quot;Выбрать = 2&quot;" style="rounded=1;whiteSpace=wrap;html=1;" vertex="1" parent="1">
          <mxGeometry x="500" y="340" width="120" height="30" as="geometry" />
        </mxCell>
        <mxCell id="mdJx6ho74UccclnnJOqx-40" value="&quot;Редактировать = 3&quot;" style="rounded=1;whiteSpace=wrap;html=1;" vertex="1" parent="1">
          <mxGeometry x="500" y="380" width="120" height="30" as="geometry" />
        </mxCell>
        <mxCell id="mdJx6ho74UccclnnJOqx-41" value="&quot;Добавить = 4&quot;" style="rounded=1;whiteSpace=wrap;html=1;" vertex="1" parent="1">
          <mxGeometry x="500" y="420" width="120" height="30" as="geometry" />
        </mxCell>
        <mxCell id="mdJx6ho74UccclnnJOqx-42" value="&quot;Удалить = 5&quot;" style="rounded=1;whiteSpace=wrap;html=1;" vertex="1" parent="1">
          <mxGeometry x="500" y="460" width="120" height="30" as="geometry" />
        </mxCell>
        <mxCell id="mdJx6ho74UccclnnJOqx-43" value="" style="endArrow=classic;html=1;rounded=0;entryX=0;entryY=0.5;entryDx=0;entryDy=0;" edge="1" parent="1" target="mdJx6ho74UccclnnJOqx-48">
          <mxGeometry width="50" height="50" relative="1" as="geometry">
            <mxPoint x="460" y="200" as="sourcePoint" />
            <mxPoint x="920" y="396" as="targetPoint" />
            <Array as="points">
              <mxPoint x="460" y="520" />
            </Array>
          </mxGeometry>
        </mxCell>
        <mxCell id="mdJx6ho74UccclnnJOqx-44" value="" style="endArrow=classic;html=1;rounded=0;entryX=0;entryY=0.5;entryDx=0;entryDy=0;" edge="1" parent="1" target="mdJx6ho74UccclnnJOqx-41">
          <mxGeometry width="50" height="50" relative="1" as="geometry">
            <mxPoint x="460" y="435" as="sourcePoint" />
            <mxPoint x="920" y="390" as="targetPoint" />
          </mxGeometry>
        </mxCell>
        <mxCell id="mdJx6ho74UccclnnJOqx-45" value="" style="endArrow=classic;html=1;rounded=0;" edge="1" parent="1">
          <mxGeometry width="50" height="50" relative="1" as="geometry">
            <mxPoint x="460" y="400" as="sourcePoint" />
            <mxPoint x="500" y="400" as="targetPoint" />
          </mxGeometry>
        </mxCell>
        <mxCell id="mdJx6ho74UccclnnJOqx-46" value="" style="endArrow=classic;html=1;rounded=0;" edge="1" parent="1" target="mdJx6ho74UccclnnJOqx-39">
          <mxGeometry width="50" height="50" relative="1" as="geometry">
            <mxPoint x="460" y="355" as="sourcePoint" />
            <mxPoint x="920" y="390" as="targetPoint" />
          </mxGeometry>
        </mxCell>
        <mxCell id="mdJx6ho74UccclnnJOqx-47" value="" style="endArrow=classic;html=1;rounded=0;entryX=0;entryY=0.5;entryDx=0;entryDy=0;" edge="1" parent="1" target="mdJx6ho74UccclnnJOqx-38">
          <mxGeometry width="50" height="50" relative="1" as="geometry">
            <mxPoint x="460" y="315" as="sourcePoint" />
            <mxPoint x="920" y="390" as="targetPoint" />
          </mxGeometry>
        </mxCell>
        <mxCell id="mdJx6ho74UccclnnJOqx-48" value="&quot;Выход = 0&quot;" style="rounded=1;whiteSpace=wrap;html=1;" vertex="1" parent="1">
          <mxGeometry x="500" y="504" width="120" height="30" as="geometry" />
        </mxCell>
        <mxCell id="mdJx6ho74UccclnnJOqx-49" value="" style="endArrow=classic;html=1;rounded=0;entryX=0;entryY=0.5;entryDx=0;entryDy=0;" edge="1" parent="1" target="mdJx6ho74UccclnnJOqx-42">
          <mxGeometry width="50" height="50" relative="1" as="geometry">
            <mxPoint x="460" y="475" as="sourcePoint" />
            <mxPoint x="730" y="310" as="targetPoint" />
          </mxGeometry>
        </mxCell>
        <mxCell id="mdJx6ho74UccclnnJOqx-50" value="" style="endArrow=none;html=1;rounded=0;exitX=1;exitY=0.75;exitDx=0;exitDy=0;" edge="1" parent="1" source="mdJx6ho74UccclnnJOqx-4">
          <mxGeometry width="50" height="50" relative="1" as="geometry">
            <mxPoint x="490" y="360" as="sourcePoint" />
            <mxPoint x="460" y="203" as="targetPoint" />
          </mxGeometry>
        </mxCell>
      </root>
    </mxGraphModel>
  </diagram>
</mxfile>
